<svg xmlns="http://www.w3.org/2000/svg" xmlns:xlink="http://www.w3.org/1999/xlink" width="500" zoomAndPan="magnify" viewBox="0 0 375 225" height="300" preserveAspectRatio="xMidYMid meet" version="1.0"><defs><g><g id="id1"/></g><clipPath id="id2"><path d="M 89.90625 3 L 284.90625 3 L 284.90625 146.96875 L 89.90625 146.96875 Z M 89.90625 3 " clip-rule="nonzero"/></clipPath><clipPath id="id3"><path d="M 111.644531 15.871094 L 187.40625 146.96875 L 172.953125 146.96875 L 89.96875 3.363281 L 133.324219 3.363281 L 140.550781 15.871094 L 147.777344 28.371094 L 155.003906 40.878906 L 201.855469 121.957031 L 225.285156 81.417969 L 248.710938 40.878906 L 255.9375 28.371094 L 263.160156 15.871094 L 270.386719 3.363281 L 284.839844 3.363281 L 277.617188 15.871094 L 270.386719 28.371094 L 265.230469 37.296875 L 201.855469 146.96875 L 157.144531 69.59375 L 133.324219 28.371094 L 126.097656 15.871094 Z M 111.644531 15.871094 " clip-rule="evenodd"/></clipPath><linearGradient x1="0.923832" gradientTransform="matrix(194.87238, 0, 0, 143.603912, 89.969101, 3.3648)" y1="1.028825" x2="0.467533" gradientUnits="userSpaceOnUse" y2="-0.176931" xlink:type="simple" xlink:actuate="onLoad" id="id4" xlink:show="other"><stop stop-opacity="1" stop-color="rgb(93.699646%, 84.298706%, 0%)" offset="0"/><stop stop-opacity="1" stop-color="rgb(93.699646%, 84.298706%, 0%)" offset="0.25"/><stop stop-opacity="1" stop-color="rgb(93.699646%, 84.298706%, 0%)" offset="0.274539"/><stop stop-opacity="1" stop-color="rgb(93.699646%, 84.298706%, 0%)" offset="0.3125"/><stop stop-opacity="1" stop-color="rgb(93.699646%, 84.298706%, 0%)" offset="0.34375"/><stop stop-opacity="1" stop-color="rgb(93.72406%, 84.179688%, 0%)" offset="0.359375"/><stop stop-opacity="1" stop-color="rgb(93.797302%, 83.825684%, 0%)" offset="0.363281"/><stop stop-opacity="1" stop-color="rgb(93.847656%, 83.589172%, 0%)" offset="0.367188"/><stop stop-opacity="1" stop-color="rgb(93.896484%, 83.351135%, 0%)" offset="0.371094"/><stop stop-opacity="1" stop-color="rgb(93.946838%, 83.114624%, 0%)" offset="0.375"/><stop stop-opacity="1" stop-color="rgb(93.995667%, 82.876587%, 0%)" offset="0.378906"/><stop stop-opacity="1" stop-color="rgb(94.044495%, 82.640076%, 0%)" offset="0.382812"/><stop stop-opacity="1" stop-color="rgb(94.093323%, 82.403564%, 0%)" offset="0.386719"/><stop stop-opacity="1" stop-color="rgb(94.143677%, 82.167053%, 0%)" offset="0.390625"/><stop stop-opacity="1" stop-color="rgb(94.192505%, 81.929016%, 0%)" offset="0.394531"/><stop stop-opacity="1" stop-color="rgb(94.242859%, 81.692505%, 0%)" offset="0.398438"/><stop stop-opacity="1" stop-color="rgb(94.291687%, 81.455994%, 0%)" offset="0.402344"/><stop stop-opacity="1" stop-color="rgb(94.342041%, 81.219482%, 0%)" offset="0.40625"/><stop stop-opacity="1" stop-color="rgb(94.390869%, 80.981445%, 0%)" offset="0.410156"/><stop stop-opacity="1" stop-color="rgb(94.441223%, 80.744934%, 0%)" offset="0.414062"/><stop stop-opacity="1" stop-color="rgb(94.490051%, 80.506897%, 0%)" offset="0.417969"/><stop stop-opacity="1" stop-color="rgb(94.538879%, 80.270386%, 0%)" offset="0.421875"/><stop stop-opacity="1" stop-color="rgb(94.587708%, 80.033875%, 0%)" offset="0.425781"/><stop stop-opacity="1" stop-color="rgb(94.638062%, 79.797363%, 0%)" offset="0.429688"/><stop stop-opacity="1" stop-color="rgb(94.68689%, 79.559326%, 0%)" offset="0.433594"/><stop stop-opacity="1" stop-color="rgb(94.737244%, 79.322815%, 0%)" offset="0.4375"/><stop stop-opacity="1" stop-color="rgb(94.786072%, 79.084778%, 0%)" offset="0.441406"/><stop stop-opacity="1" stop-color="rgb(94.836426%, 78.848267%, 0%)" offset="0.445312"/><stop stop-opacity="1" stop-color="rgb(94.885254%, 78.611755%, 0%)" offset="0.449219"/><stop stop-opacity="1" stop-color="rgb(94.935608%, 78.375244%, 0%)" offset="0.453125"/><stop stop-opacity="1" stop-color="rgb(94.984436%, 78.137207%, 0%)" offset="0.457031"/><stop stop-opacity="1" stop-color="rgb(95.033264%, 77.900696%, 0%)" offset="0.460938"/><stop stop-opacity="1" stop-color="rgb(95.082092%, 77.664185%, 0%)" offset="0.464844"/><stop stop-opacity="1" stop-color="rgb(95.132446%, 77.427673%, 0%)" offset="0.46875"/><stop stop-opacity="1" stop-color="rgb(95.181274%, 77.189636%, 0%)" offset="0.472656"/><stop stop-opacity="1" stop-color="rgb(95.231628%, 76.953125%, 0%)" offset="0.476563"/><stop stop-opacity="1" stop-color="rgb(95.280457%, 76.715088%, 0%)" offset="0.480469"/><stop stop-opacity="1" stop-color="rgb(95.330811%, 76.478577%, 0%)" offset="0.484375"/><stop stop-opacity="1" stop-color="rgb(95.379639%, 76.242065%, 0%)" offset="0.488281"/><stop stop-opacity="1" stop-color="rgb(95.429993%, 76.005554%, 0%)" offset="0.492188"/><stop stop-opacity="1" stop-color="rgb(95.478821%, 75.767517%, 0%)" offset="0.496094"/><stop stop-opacity="1" stop-color="rgb(95.527649%, 75.531006%, 0%)" offset="0.5"/><stop stop-opacity="1" stop-color="rgb(95.576477%, 75.292969%, 0%)" offset="0.503906"/><stop stop-opacity="1" stop-color="rgb(95.626831%, 75.056458%, 0%)" offset="0.507812"/><stop stop-opacity="1" stop-color="rgb(95.675659%, 74.819946%, 0%)" offset="0.511719"/><stop stop-opacity="1" stop-color="rgb(95.726013%, 74.583435%, 0%)" offset="0.515625"/><stop stop-opacity="1" stop-color="rgb(95.774841%, 74.345398%, 0%)" offset="0.519531"/><stop stop-opacity="1" stop-color="rgb(95.825195%, 74.108887%, 0%)" offset="0.523438"/><stop stop-opacity="1" stop-color="rgb(95.874023%, 73.872375%, 0%)" offset="0.527344"/><stop stop-opacity="1" stop-color="rgb(95.924377%, 73.635864%, 0%)" offset="0.53125"/><stop stop-opacity="1" stop-color="rgb(95.973206%, 73.397827%, 0%)" offset="0.535156"/><stop stop-opacity="1" stop-color="rgb(96.022034%, 73.161316%, 0%)" offset="0.539062"/><stop stop-opacity="1" stop-color="rgb(96.070862%, 72.923279%, 0%)" offset="0.542969"/><stop stop-opacity="1" stop-color="rgb(96.121216%, 72.686768%, 0%)" offset="0.546875"/><stop stop-opacity="1" stop-color="rgb(96.170044%, 72.450256%, 0%)" offset="0.550781"/><stop stop-opacity="1" stop-color="rgb(96.220398%, 72.213745%, 0%)" offset="0.554688"/><stop stop-opacity="1" stop-color="rgb(96.269226%, 71.975708%, 0%)" offset="0.558594"/><stop stop-opacity="1" stop-color="rgb(96.31958%, 71.739197%, 0%)" offset="0.5625"/><stop stop-opacity="1" stop-color="rgb(96.368408%, 71.50116%, 0%)" offset="0.566406"/><stop stop-opacity="1" stop-color="rgb(96.418762%, 71.264648%, 0%)" offset="0.570312"/><stop stop-opacity="1" stop-color="rgb(96.46759%, 71.028137%, 0%)" offset="0.574219"/><stop stop-opacity="1" stop-color="rgb(96.516418%, 70.791626%, 0%)" offset="0.578125"/><stop stop-opacity="1" stop-color="rgb(96.565247%, 70.553589%, 0%)" offset="0.582031"/><stop stop-opacity="1" stop-color="rgb(96.615601%, 70.317078%, 0%)" offset="0.585938"/><stop stop-opacity="1" stop-color="rgb(96.664429%, 70.080566%, 0%)" offset="0.589844"/><stop stop-opacity="1" stop-color="rgb(96.714783%, 69.844055%, 0%)" offset="0.59375"/><stop stop-opacity="1" stop-color="rgb(96.763611%, 69.606018%, 0%)" offset="0.597656"/><stop stop-opacity="1" stop-color="rgb(96.813965%, 69.369507%, 0%)" offset="0.601562"/><stop stop-opacity="1" stop-color="rgb(96.862793%, 69.13147%, 0%)" offset="0.605469"/><stop stop-opacity="1" stop-color="rgb(96.913147%, 68.894958%, 0%)" offset="0.609375"/><stop stop-opacity="1" stop-color="rgb(96.961975%, 68.658447%, 0%)" offset="0.613281"/><stop stop-opacity="1" stop-color="rgb(97.010803%, 68.421936%, 0%)" offset="0.617188"/><stop stop-opacity="1" stop-color="rgb(97.059631%, 68.183899%, 0%)" offset="0.621094"/><stop stop-opacity="1" stop-color="rgb(97.109985%, 67.947388%, 0%)" offset="0.625"/><stop stop-opacity="1" stop-color="rgb(97.158813%, 67.709351%, 0%)" offset="0.628906"/><stop stop-opacity="1" stop-color="rgb(97.209167%, 67.472839%, 0%)" offset="0.632812"/><stop stop-opacity="1" stop-color="rgb(97.257996%, 67.236328%, 0%)" offset="0.636719"/><stop stop-opacity="1" stop-color="rgb(97.30835%, 66.999817%, 0%)" offset="0.640625"/><stop stop-opacity="1" stop-color="rgb(97.357178%, 66.76178%, 0%)" offset="0.644531"/><stop stop-opacity="1" stop-color="rgb(97.407532%, 66.525269%, 0%)" offset="0.648438"/><stop stop-opacity="1" stop-color="rgb(97.45636%, 66.288757%, 0%)" offset="0.652344"/><stop stop-opacity="1" stop-color="rgb(97.505188%, 66.052246%, 0%)" offset="0.65625"/><stop stop-opacity="1" stop-color="rgb(97.554016%, 65.814209%, 0%)" offset="0.660156"/><stop stop-opacity="1" stop-color="rgb(97.60437%, 65.577698%, 0%)" offset="0.664063"/><stop stop-opacity="1" stop-color="rgb(97.653198%, 65.339661%, 0%)" offset="0.667969"/><stop stop-opacity="1" stop-color="rgb(97.703552%, 65.103149%, 0%)" offset="0.671875"/><stop stop-opacity="1" stop-color="rgb(97.75238%, 64.866638%, 0%)" offset="0.675781"/><stop stop-opacity="1" stop-color="rgb(97.802734%, 64.630127%, 0%)" offset="0.679688"/><stop stop-opacity="1" stop-color="rgb(97.851562%, 64.39209%, 0%)" offset="0.683594"/><stop stop-opacity="1" stop-color="rgb(97.901917%, 64.155579%, 0%)" offset="0.6875"/><stop stop-opacity="1" stop-color="rgb(97.950745%, 63.917542%, 0%)" offset="0.691406"/><stop stop-opacity="1" stop-color="rgb(97.999573%, 63.68103%, 0%)" offset="0.695312"/><stop stop-opacity="1" stop-color="rgb(98.048401%, 63.444519%, 0%)" offset="0.699219"/><stop stop-opacity="1" stop-color="rgb(98.098755%, 63.208008%, 0%)" offset="0.703125"/><stop stop-opacity="1" stop-color="rgb(98.147583%, 62.969971%, 0%)" offset="0.707031"/><stop stop-opacity="1" stop-color="rgb(98.197937%, 62.733459%, 0%)" offset="0.710938"/><stop stop-opacity="1" stop-color="rgb(98.246765%, 62.496948%, 0%)" offset="0.714844"/><stop stop-opacity="1" stop-color="rgb(98.297119%, 62.260437%, 0%)" offset="0.71875"/><stop stop-opacity="1" stop-color="rgb(98.345947%, 62.0224%, 0%)" offset="0.722656"/><stop stop-opacity="1" stop-color="rgb(98.396301%, 61.785889%, 0%)" offset="0.726562"/><stop stop-opacity="1" stop-color="rgb(98.445129%, 61.547852%, 0%)" offset="0.730469"/><stop stop-opacity="1" stop-color="rgb(98.493958%, 61.31134%, 0%)" offset="0.734375"/><stop stop-opacity="1" stop-color="rgb(98.542786%, 61.074829%, 0%)" offset="0.738281"/><stop stop-opacity="1" stop-color="rgb(98.59314%, 60.838318%, 0%)" offset="0.742188"/><stop stop-opacity="1" stop-color="rgb(98.641968%, 60.600281%, 0%)" offset="0.746094"/><stop stop-opacity="1" stop-color="rgb(98.692322%, 60.36377%, 0%)" offset="0.75"/><stop stop-opacity="1" stop-color="rgb(98.74115%, 60.127258%, 0%)" offset="0.753906"/><stop stop-opacity="1" stop-color="rgb(98.791504%, 59.890747%, 0%)" offset="0.757812"/><stop stop-opacity="1" stop-color="rgb(98.840332%, 59.65271%, 0%)" offset="0.761719"/><stop stop-opacity="1" stop-color="rgb(98.890686%, 59.416199%, 0%)" offset="0.765625"/><stop stop-opacity="1" stop-color="rgb(98.939514%, 59.178162%, 0%)" offset="0.769531"/><stop stop-opacity="1" stop-color="rgb(98.988342%, 58.94165%, 0%)" offset="0.773438"/><stop stop-opacity="1" stop-color="rgb(99.03717%, 58.705139%, 0%)" offset="0.777344"/><stop stop-opacity="1" stop-color="rgb(99.087524%, 58.468628%, 0%)" offset="0.78125"/><stop stop-opacity="1" stop-color="rgb(99.136353%, 58.230591%, 0%)" offset="0.785156"/><stop stop-opacity="1" stop-color="rgb(99.186707%, 57.99408%, 0%)" offset="0.789062"/><stop stop-opacity="1" stop-color="rgb(99.235535%, 57.756042%, 0%)" offset="0.792969"/><stop stop-opacity="1" stop-color="rgb(99.285889%, 57.519531%, 0%)" offset="0.796875"/><stop stop-opacity="1" stop-color="rgb(99.334717%, 57.28302%, 0%)" offset="0.800781"/><stop stop-opacity="1" stop-color="rgb(99.385071%, 57.046509%, 0%)" offset="0.804688"/><stop stop-opacity="1" stop-color="rgb(99.433899%, 56.808472%, 0%)" offset="0.808594"/><stop stop-opacity="1" stop-color="rgb(99.482727%, 56.57196%, 0%)" offset="0.8125"/><stop stop-opacity="1" stop-color="rgb(99.531555%, 56.335449%, 0%)" offset="0.816406"/><stop stop-opacity="1" stop-color="rgb(99.581909%, 56.098938%, 0%)" offset="0.820312"/><stop stop-opacity="1" stop-color="rgb(99.630737%, 55.860901%, 0%)" offset="0.824219"/><stop stop-opacity="1" stop-color="rgb(99.681091%, 55.62439%, 0%)" offset="0.828125"/><stop stop-opacity="1" stop-color="rgb(99.729919%, 55.386353%, 0%)" offset="0.832031"/><stop stop-opacity="1" stop-color="rgb(99.780273%, 55.149841%, 0%)" offset="0.835937"/><stop stop-opacity="1" stop-color="rgb(99.829102%, 54.91333%, 0%)" offset="0.839844"/><stop stop-opacity="1" stop-color="rgb(99.879456%, 54.676819%, 0%)" offset="0.84375"/><stop stop-opacity="1" stop-color="rgb(99.928284%, 54.438782%, 0%)" offset="0.847656"/><stop stop-opacity="1" stop-color="rgb(99.977112%, 54.202271%, 0%)" offset="0.851562"/><stop stop-opacity="1" stop-color="rgb(99.987793%, 54.150391%, 0%)" offset="0.859375"/><stop stop-opacity="1" stop-color="rgb(100%, 54.098511%, 0%)" offset="0.875"/><stop stop-opacity="1" stop-color="rgb(100%, 54.098511%, 0%)" offset="1"/></linearGradient><clipPath id="id5"><path d="M 146 2.96875 L 256 2.96875 L 256 98 L 146 98 Z M 146 2.96875 " clip-rule="nonzero"/></clipPath><clipPath id="id6"><path d="M 212.539062 53.382812 L 219.765625 40.878906 L 226.992188 28.371094 L 234.21875 15.867188 L 219.761719 15.867188 L 216.152344 22.121094 L 210.996094 31.042969 L 208.925781 34.621094 L 201.699219 47.128906 L 194.289062 59.949219 L 193.851562 60.710938 L 186.882812 72.773438 L 179.65625 60.269531 L 179.808594 60.003906 L 160.683594 27.972656 L 146.230469 2.964844 L 160.683594 2.964844 L 167.90625 15.46875 L 186.972656 47.605469 L 187.25 47.125 L 201.703125 22.117188 L 205.316406 15.863281 L 208.925781 9.613281 L 212.539062 3.359375 L 255.898438 3.359375 L 248.671875 15.863281 L 241.445312 28.371094 L 236.289062 37.292969 L 234.21875 40.871094 L 226.992188 53.378906 L 206.25 89.273438 L 201.335938 97.777344 L 194.109375 85.273438 C 201.722656 72.09375 204.929688 66.550781 212.542969 53.375 Z M 212.539062 53.382812 " clip-rule="evenodd"/></clipPath><linearGradient x1="0.923832" gradientTransform="matrix(109.665886, 0, 0, 94.814255, 146.230713, 2.96375)" y1="1.028825" x2="0.467551" gradientUnits="userSpaceOnUse" y2="-0.176885" xlink:type="simple" xlink:actuate="onLoad" id="id7" xlink:show="other"><stop stop-opacity="1" stop-color="rgb(93.699646%, 84.298706%, 0%)" offset="0"/><stop stop-opacity="1" stop-color="rgb(93.699646%, 84.298706%, 0%)" offset="0.25"/><stop stop-opacity="1" stop-color="rgb(93.699646%, 84.298706%, 0%)" offset="0.27455"/><stop stop-opacity="1" stop-color="rgb(93.699646%, 84.298706%, 0%)" offset="0.3125"/><stop stop-opacity="1" stop-color="rgb(93.699646%, 84.298706%, 0%)" offset="0.34375"/><stop stop-opacity="1" stop-color="rgb(93.72406%, 84.181213%, 0%)" offset="0.359375"/><stop stop-opacity="1" stop-color="rgb(93.797302%, 83.825684%, 0%)" offset="0.363281"/><stop stop-opacity="1" stop-color="rgb(93.847656%, 83.589172%, 0%)" offset="0.367188"/><stop stop-opacity="1" stop-color="rgb(93.896484%, 83.352661%, 0%)" offset="0.371094"/><stop stop-opacity="1" stop-color="rgb(93.946838%, 83.11615%, 0%)" offset="0.375"/><stop stop-opacity="1" stop-color="rgb(93.995667%, 82.878113%, 0%)" offset="0.378906"/><stop stop-opacity="1" stop-color="rgb(94.044495%, 82.641602%, 0%)" offset="0.382812"/><stop stop-opacity="1" stop-color="rgb(94.093323%, 82.403564%, 0%)" offset="0.386719"/><stop stop-opacity="1" stop-color="rgb(94.143677%, 82.167053%, 0%)" offset="0.390625"/><stop stop-opacity="1" stop-color="rgb(94.192505%, 81.930542%, 0%)" offset="0.394531"/><stop stop-opacity="1" stop-color="rgb(94.242859%, 81.694031%, 0%)" offset="0.398438"/><stop stop-opacity="1" stop-color="rgb(94.291687%, 81.455994%, 0%)" offset="0.402344"/><stop stop-opacity="1" stop-color="rgb(94.342041%, 81.219482%, 0%)" offset="0.40625"/><stop stop-opacity="1" stop-color="rgb(94.390869%, 80.982971%, 0%)" offset="0.410156"/><stop stop-opacity="1" stop-color="rgb(94.441223%, 80.74646%, 0%)" offset="0.414062"/><stop stop-opacity="1" stop-color="rgb(94.490051%, 80.508423%, 0%)" offset="0.417969"/><stop stop-opacity="1" stop-color="rgb(94.538879%, 80.271912%, 0%)" offset="0.421875"/><stop stop-opacity="1" stop-color="rgb(94.587708%, 80.033875%, 0%)" offset="0.425781"/><stop stop-opacity="1" stop-color="rgb(94.638062%, 79.797363%, 0%)" offset="0.429688"/><stop stop-opacity="1" stop-color="rgb(94.68689%, 79.560852%, 0%)" offset="0.433594"/><stop stop-opacity="1" stop-color="rgb(94.737244%, 79.324341%, 0%)" offset="0.4375"/><stop stop-opacity="1" stop-color="rgb(94.786072%, 79.086304%, 0%)" offset="0.441406"/><stop stop-opacity="1" stop-color="rgb(94.836426%, 78.849792%, 0%)" offset="0.445313"/><stop stop-opacity="1" stop-color="rgb(94.885254%, 78.611755%, 0%)" offset="0.449219"/><stop stop-opacity="1" stop-color="rgb(94.935608%, 78.375244%, 0%)" offset="0.453125"/><stop stop-opacity="1" stop-color="rgb(94.984436%, 78.138733%, 0%)" offset="0.457031"/><stop stop-opacity="1" stop-color="rgb(95.033264%, 77.902222%, 0%)" offset="0.460938"/><stop stop-opacity="1" stop-color="rgb(95.082092%, 77.664185%, 0%)" offset="0.464844"/><stop stop-opacity="1" stop-color="rgb(95.132446%, 77.427673%, 0%)" offset="0.46875"/><stop stop-opacity="1" stop-color="rgb(95.181274%, 77.191162%, 0%)" offset="0.472656"/><stop stop-opacity="1" stop-color="rgb(95.231628%, 76.954651%, 0%)" offset="0.476563"/><stop stop-opacity="1" stop-color="rgb(95.280457%, 76.716614%, 0%)" offset="0.480469"/><stop stop-opacity="1" stop-color="rgb(95.330811%, 76.480103%, 0%)" offset="0.484375"/><stop stop-opacity="1" stop-color="rgb(95.379639%, 76.242065%, 0%)" offset="0.488281"/><stop stop-opacity="1" stop-color="rgb(95.429993%, 76.005554%, 0%)" offset="0.492188"/><stop stop-opacity="1" stop-color="rgb(95.478821%, 75.769043%, 0%)" offset="0.496094"/><stop stop-opacity="1" stop-color="rgb(95.527649%, 75.532532%, 0%)" offset="0.5"/><stop stop-opacity="1" stop-color="rgb(95.576477%, 75.294495%, 0%)" offset="0.503906"/><stop stop-opacity="1" stop-color="rgb(95.626831%, 75.057983%, 0%)" offset="0.507813"/><stop stop-opacity="1" stop-color="rgb(95.675659%, 74.821472%, 0%)" offset="0.511719"/><stop stop-opacity="1" stop-color="rgb(95.726013%, 74.584961%, 0%)" offset="0.515625"/><stop stop-opacity="1" stop-color="rgb(95.774841%, 74.346924%, 0%)" offset="0.519531"/><stop stop-opacity="1" stop-color="rgb(95.825195%, 74.110413%, 0%)" offset="0.523438"/><stop stop-opacity="1" stop-color="rgb(95.874023%, 73.872375%, 0%)" offset="0.527344"/><stop stop-opacity="1" stop-color="rgb(95.922852%, 73.635864%, 0%)" offset="0.53125"/><stop stop-opacity="1" stop-color="rgb(95.97168%, 73.399353%, 0%)" offset="0.535156"/><stop stop-opacity="1" stop-color="rgb(96.022034%, 73.162842%, 0%)" offset="0.539063"/><stop stop-opacity="1" stop-color="rgb(96.070862%, 72.924805%, 0%)" offset="0.542969"/><stop stop-opacity="1" stop-color="rgb(96.121216%, 72.688293%, 0%)" offset="0.546875"/><stop stop-opacity="1" stop-color="rgb(96.170044%, 72.451782%, 0%)" offset="0.550781"/><stop stop-opacity="1" stop-color="rgb(96.220398%, 72.215271%, 0%)" offset="0.554688"/><stop stop-opacity="1" stop-color="rgb(96.269226%, 71.977234%, 0%)" offset="0.558594"/><stop stop-opacity="1" stop-color="rgb(96.31958%, 71.740723%, 0%)" offset="0.5625"/><stop stop-opacity="1" stop-color="rgb(96.368408%, 71.502686%, 0%)" offset="0.566406"/><stop stop-opacity="1" stop-color="rgb(96.417236%, 71.266174%, 0%)" offset="0.570313"/><stop stop-opacity="1" stop-color="rgb(96.466064%, 71.029663%, 0%)" offset="0.574219"/><stop stop-opacity="1" stop-color="rgb(96.516418%, 70.793152%, 0%)" offset="0.578125"/><stop stop-opacity="1" stop-color="rgb(96.565247%, 70.555115%, 0%)" offset="0.582031"/><stop stop-opacity="1" stop-color="rgb(96.615601%, 70.318604%, 0%)" offset="0.585938"/><stop stop-opacity="1" stop-color="rgb(96.664429%, 70.080566%, 0%)" offset="0.589844"/><stop stop-opacity="1" stop-color="rgb(96.714783%, 69.844055%, 0%)" offset="0.59375"/><stop stop-opacity="1" stop-color="rgb(96.763611%, 69.607544%, 0%)" offset="0.597656"/><stop stop-opacity="1" stop-color="rgb(96.813965%, 69.371033%, 0%)" offset="0.601563"/><stop stop-opacity="1" stop-color="rgb(96.862793%, 69.132996%, 0%)" offset="0.605469"/><stop stop-opacity="1" stop-color="rgb(96.911621%, 68.896484%, 0%)" offset="0.609375"/><stop stop-opacity="1" stop-color="rgb(96.960449%, 68.659973%, 0%)" offset="0.613281"/><stop stop-opacity="1" stop-color="rgb(97.010803%, 68.423462%, 0%)" offset="0.617188"/><stop stop-opacity="1" stop-color="rgb(97.059631%, 68.185425%, 0%)" offset="0.621094"/><stop stop-opacity="1" stop-color="rgb(97.109985%, 67.948914%, 0%)" offset="0.625"/><stop stop-opacity="1" stop-color="rgb(97.158813%, 67.710876%, 0%)" offset="0.628906"/><stop stop-opacity="1" stop-color="rgb(97.209167%, 67.474365%, 0%)" offset="0.632813"/><stop stop-opacity="1" stop-color="rgb(97.257996%, 67.237854%, 0%)" offset="0.636719"/><stop stop-opacity="1" stop-color="rgb(97.30835%, 67.001343%, 0%)" offset="0.640625"/><stop stop-opacity="1" stop-color="rgb(97.357178%, 66.763306%, 0%)" offset="0.644531"/><stop stop-opacity="1" stop-color="rgb(97.406006%, 66.526794%, 0%)" offset="0.648438"/><stop stop-opacity="1" stop-color="rgb(97.454834%, 66.290283%, 0%)" offset="0.652344"/><stop stop-opacity="1" stop-color="rgb(97.505188%, 66.053772%, 0%)" offset="0.65625"/><stop stop-opacity="1" stop-color="rgb(97.554016%, 65.815735%, 0%)" offset="0.660156"/><stop stop-opacity="1" stop-color="rgb(97.60437%, 65.579224%, 0%)" offset="0.664062"/><stop stop-opacity="1" stop-color="rgb(97.653198%, 65.341187%, 0%)" offset="0.667969"/><stop stop-opacity="1" stop-color="rgb(97.703552%, 65.104675%, 0%)" offset="0.671875"/><stop stop-opacity="1" stop-color="rgb(97.75238%, 64.868164%, 0%)" offset="0.675781"/><stop stop-opacity="1" stop-color="rgb(97.802734%, 64.631653%, 0%)" offset="0.679688"/><stop stop-opacity="1" stop-color="rgb(97.851562%, 64.393616%, 0%)" offset="0.683594"/><stop stop-opacity="1" stop-color="rgb(97.900391%, 64.157104%, 0%)" offset="0.6875"/><stop stop-opacity="1" stop-color="rgb(97.949219%, 63.920593%, 0%)" offset="0.691406"/><stop stop-opacity="1" stop-color="rgb(97.999573%, 63.684082%, 0%)" offset="0.695312"/><stop stop-opacity="1" stop-color="rgb(98.048401%, 63.446045%, 0%)" offset="0.699219"/><stop stop-opacity="1" stop-color="rgb(98.098755%, 63.209534%, 0%)" offset="0.703125"/><stop stop-opacity="1" stop-color="rgb(98.147583%, 62.971497%, 0%)" offset="0.707031"/><stop stop-opacity="1" stop-color="rgb(98.197937%, 62.734985%, 0%)" offset="0.710938"/><stop stop-opacity="1" stop-color="rgb(98.246765%, 62.498474%, 0%)" offset="0.714844"/><stop stop-opacity="1" stop-color="rgb(98.297119%, 62.261963%, 0%)" offset="0.71875"/><stop stop-opacity="1" stop-color="rgb(98.345947%, 62.023926%, 0%)" offset="0.722656"/><stop stop-opacity="1" stop-color="rgb(98.394775%, 61.787415%, 0%)" offset="0.726562"/><stop stop-opacity="1" stop-color="rgb(98.443604%, 61.549377%, 0%)" offset="0.730469"/><stop stop-opacity="1" stop-color="rgb(98.493958%, 61.312866%, 0%)" offset="0.734375"/><stop stop-opacity="1" stop-color="rgb(98.542786%, 61.076355%, 0%)" offset="0.738281"/><stop stop-opacity="1" stop-color="rgb(98.59314%, 60.839844%, 0%)" offset="0.742188"/><stop stop-opacity="1" stop-color="rgb(98.641968%, 60.601807%, 0%)" offset="0.746094"/><stop stop-opacity="1" stop-color="rgb(98.692322%, 60.365295%, 0%)" offset="0.75"/><stop stop-opacity="1" stop-color="rgb(98.74115%, 60.128784%, 0%)" offset="0.753906"/><stop stop-opacity="1" stop-color="rgb(98.791504%, 59.892273%, 0%)" offset="0.757813"/><stop stop-opacity="1" stop-color="rgb(98.840332%, 59.654236%, 0%)" offset="0.761719"/><stop stop-opacity="1" stop-color="rgb(98.88916%, 59.417725%, 0%)" offset="0.765625"/><stop stop-opacity="1" stop-color="rgb(98.937988%, 59.179688%, 0%)" offset="0.769531"/><stop stop-opacity="1" stop-color="rgb(98.988342%, 58.943176%, 0%)" offset="0.773438"/><stop stop-opacity="1" stop-color="rgb(99.03717%, 58.706665%, 0%)" offset="0.777344"/><stop stop-opacity="1" stop-color="rgb(99.087524%, 58.470154%, 0%)" offset="0.78125"/><stop stop-opacity="1" stop-color="rgb(99.136353%, 58.232117%, 0%)" offset="0.785156"/><stop stop-opacity="1" stop-color="rgb(99.186707%, 57.995605%, 0%)" offset="0.789063"/><stop stop-opacity="1" stop-color="rgb(99.235535%, 57.759094%, 0%)" offset="0.792969"/><stop stop-opacity="1" stop-color="rgb(99.285889%, 57.522583%, 0%)" offset="0.796875"/><stop stop-opacity="1" stop-color="rgb(99.334717%, 57.284546%, 0%)" offset="0.800781"/><stop stop-opacity="1" stop-color="rgb(99.383545%, 57.048035%, 0%)" offset="0.804688"/><stop stop-opacity="1" stop-color="rgb(99.432373%, 56.809998%, 0%)" offset="0.808594"/><stop stop-opacity="1" stop-color="rgb(99.482727%, 56.573486%, 0%)" offset="0.8125"/><stop stop-opacity="1" stop-color="rgb(99.531555%, 56.336975%, 0%)" offset="0.816406"/><stop stop-opacity="1" stop-color="rgb(99.581909%, 56.100464%, 0%)" offset="0.820313"/><stop stop-opacity="1" stop-color="rgb(99.630737%, 55.862427%, 0%)" offset="0.824219"/><stop stop-opacity="1" stop-color="rgb(99.681091%, 55.625916%, 0%)" offset="0.828125"/><stop stop-opacity="1" stop-color="rgb(99.729919%, 55.389404%, 0%)" offset="0.832031"/><stop stop-opacity="1" stop-color="rgb(99.780273%, 55.152893%, 0%)" offset="0.835938"/><stop stop-opacity="1" stop-color="rgb(99.829102%, 54.914856%, 0%)" offset="0.839844"/><stop stop-opacity="1" stop-color="rgb(99.87793%, 54.678345%, 0%)" offset="0.84375"/><stop stop-opacity="1" stop-color="rgb(99.926758%, 54.440308%, 0%)" offset="0.847656"/><stop stop-opacity="1" stop-color="rgb(99.977112%, 54.203796%, 0%)" offset="0.851563"/><stop stop-opacity="1" stop-color="rgb(99.987793%, 54.150391%, 0%)" offset="0.859375"/><stop stop-opacity="1" stop-color="rgb(100%, 54.098511%, 0%)" offset="0.875"/><stop stop-opacity="1" stop-color="rgb(100%, 54.098511%, 0%)" offset="1"/></linearGradient></defs><g clip-path="url(#id2)"><g clip-path="url(#id3)"><path fill="url(#id4)" d="M 89.96875 3.363281 L 89.96875 146.96875 L 284.839844 146.96875 L 284.839844 3.363281 Z M 89.96875 3.363281 " fill-rule="nonzero"/></g></g><g clip-path="url(#id5)"><g clip-path="url(#id6)"><path fill="url(#id7)" d="M 146.230469 2.96875 L 146.230469 97.777344 L 255.898438 97.777344 L 255.898438 2.96875 Z M 146.230469 2.96875 " fill-rule="nonzero"/></g></g><g fill="rgb(97.24884%, 99.21875%, 100%)" fill-opacity="1"><g transform="translate(10.484062, 214.032636)"><g><path d="M 0.171875 -27.46875 C 0.171875 -28.175781 0.613281 -28.789062 1.5 -29.3125 C 2.394531 -29.832031 3.320312 -30.09375 4.28125 -30.09375 C 5.457031 -30.09375 6.15625 -29.695312 6.375 -28.90625 L 12.140625 -7.78125 L 17.875 -28.90625 C 18.09375 -29.695312 18.789062 -30.09375 19.96875 -30.09375 C 20.925781 -30.09375 21.847656 -29.832031 22.734375 -29.3125 C 23.628906 -28.789062 24.078125 -28.175781 24.078125 -27.46875 C 24.078125 -27.382812 24.050781 -27.234375 24 -27.015625 L 16.34375 -1.890625 C 16.125 -1.203125 15.625 -0.671875 14.84375 -0.296875 C 14.0625 0.0664062 13.160156 0.25 12.140625 0.25 C 11.128906 0.25 10.234375 0.0664062 9.453125 -0.296875 C 8.671875 -0.671875 8.171875 -1.203125 7.953125 -1.890625 L 0.25 -27.015625 C 0.195312 -27.234375 0.171875 -27.382812 0.171875 -27.46875 Z M 0.171875 -27.46875 "/></g></g></g><g fill="rgb(97.24884%, 99.21875%, 100%)" fill-opacity="1"><g transform="translate(47.203777, 214.032636)"><g><path d="M 2.21875 -1.96875 L 2.21875 -28.15625 C 2.21875 -28.789062 2.53125 -29.269531 3.15625 -29.59375 C 3.789062 -29.925781 4.546875 -30.09375 5.421875 -30.09375 C 6.304688 -30.09375 7.0625 -29.925781 7.6875 -29.59375 C 8.320312 -29.269531 8.640625 -28.789062 8.640625 -28.15625 L 8.640625 -1.96875 C 8.640625 -1.34375 8.320312 -0.859375 7.6875 -0.515625 C 7.0625 -0.171875 6.304688 0 5.421875 0 C 4.546875 0 3.789062 -0.171875 3.15625 -0.515625 C 2.53125 -0.859375 2.21875 -1.34375 2.21875 -1.96875 Z M 2.21875 -1.96875 "/></g></g></g><g fill="rgb(97.24884%, 99.21875%, 100%)" fill-opacity="1"><g transform="translate(70.545899, 214.032636)"><g><path d="M 2.21875 -1.96875 L 2.21875 -28.15625 C 2.21875 -28.675781 2.398438 -29.128906 2.765625 -29.515625 C 3.140625 -29.898438 3.617188 -30.09375 4.203125 -30.09375 L 12.71875 -30.09375 C 19.46875 -30.09375 22.84375 -27.15625 22.84375 -21.28125 C 22.84375 -17 21.1875 -14.210938 17.875 -12.921875 L 22.890625 -3.828125 C 23.023438 -3.640625 23.09375 -3.394531 23.09375 -3.09375 C 23.09375 -2.289062 22.660156 -1.53125 21.796875 -0.8125 C 20.929688 -0.101562 20.019531 0.25 19.0625 0.25 C 18.101562 0.25 17.414062 -0.148438 17 -0.953125 L 11.359375 -11.90625 L 8.640625 -11.90625 L 8.640625 -1.96875 C 8.640625 -1.34375 8.320312 -0.859375 7.6875 -0.515625 C 7.0625 -0.171875 6.304688 0 5.421875 0 C 4.546875 0 3.789062 -0.171875 3.15625 -0.515625 C 2.53125 -0.859375 2.21875 -1.34375 2.21875 -1.96875 Z M 8.640625 -16.84375 L 12.71875 -16.84375 C 13.925781 -16.84375 14.84375 -17.132812 15.46875 -17.71875 C 16.101562 -18.3125 16.421875 -19.296875 16.421875 -20.671875 C 16.421875 -22.046875 16.101562 -23.023438 15.46875 -23.609375 C 14.84375 -24.203125 13.925781 -24.5 12.71875 -24.5 L 8.640625 -24.5 Z M 8.640625 -16.84375 "/></g></g></g><g fill="rgb(97.24884%, 99.21875%, 100%)" fill-opacity="1"><g transform="translate(107.059809, 214.032636)"><g><path d="M 0.328125 -27.25 C 0.328125 -28.019531 0.488281 -28.6875 0.8125 -29.25 C 1.144531 -29.8125 1.628906 -30.09375 2.265625 -30.09375 L 20.046875 -30.09375 C 20.679688 -30.09375 21.160156 -29.8125 21.484375 -29.25 C 21.816406 -28.6875 21.984375 -28.019531 21.984375 -27.25 C 21.984375 -26.425781 21.8125 -25.734375 21.46875 -25.171875 C 21.125 -24.609375 20.648438 -24.328125 20.046875 -24.328125 L 14.375 -24.328125 L 14.375 -1.96875 C 14.375 -1.34375 14.054688 -0.859375 13.421875 -0.515625 C 12.785156 -0.171875 12.03125 0 11.15625 0 C 10.28125 0 9.523438 -0.171875 8.890625 -0.515625 C 8.265625 -0.859375 7.953125 -1.34375 7.953125 -1.96875 L 7.953125 -24.328125 L 2.265625 -24.328125 C 1.660156 -24.328125 1.1875 -24.609375 0.84375 -25.171875 C 0.5 -25.734375 0.328125 -26.425781 0.328125 -27.25 Z M 0.328125 -27.25 "/></g></g></g><g fill="rgb(97.24884%, 99.21875%, 100%)" fill-opacity="1"><g transform="translate(141.844917, 214.032636)"><g><path d="M 2.09375 -9.46875 L 2.09375 -28.15625 C 2.09375 -28.789062 2.398438 -29.269531 3.015625 -29.59375 C 3.640625 -29.925781 4.40625 -30.09375 5.3125 -30.09375 C 6.1875 -30.09375 6.9375 -29.925781 7.5625 -29.59375 C 8.195312 -29.269531 8.515625 -28.789062 8.515625 -28.15625 L 8.515625 -9.46875 C 8.515625 -6.726562 9.832031 -5.359375 12.46875 -5.359375 C 15.101562 -5.359375 16.421875 -6.726562 16.421875 -9.46875 L 16.421875 -28.15625 C 16.421875 -28.789062 16.726562 -29.269531 17.34375 -29.59375 C 17.96875 -29.925781 18.734375 -30.09375 19.640625 -30.09375 C 20.515625 -30.09375 21.265625 -29.925781 21.890625 -29.59375 C 22.523438 -29.269531 22.84375 -28.789062 22.84375 -28.15625 L 22.84375 -9.46875 C 22.84375 -6.125 21.894531 -3.664062 20 -2.09375 C 18.113281 -0.53125 15.601562 0.25 12.46875 0.25 C 9.3125 0.25 6.789062 -0.53125 4.90625 -2.09375 C 3.03125 -3.664062 2.09375 -6.125 2.09375 -9.46875 Z M 2.09375 -9.46875 "/></g></g></g><g fill="rgb(97.24884%, 99.21875%, 100%)" fill-opacity="1"><g transform="translate(179.264382, 214.032636)"><g><path d="M 0.171875 -2.640625 C 0.171875 -2.722656 0.195312 -2.875 0.25 -3.09375 L 7.90625 -28.203125 C 8.125 -28.890625 8.625 -29.414062 9.40625 -29.78125 C 10.1875 -30.15625 11.082031 -30.34375 12.09375 -30.34375 C 13.113281 -30.34375 14.015625 -30.15625 14.796875 -29.78125 C 15.578125 -29.414062 16.078125 -28.890625 16.296875 -28.203125 L 24 -3.09375 C 24.050781 -2.875 24.078125 -2.722656 24.078125 -2.640625 C 24.078125 -1.921875 23.628906 -1.300781 22.734375 -0.78125 C 21.847656 -0.257812 20.925781 0 19.96875 0 C 18.789062 0 18.09375 -0.394531 17.875 -1.1875 L 16.46875 -6.34375 L 7.78125 -6.34375 L 6.375 -1.1875 C 6.15625 -0.394531 5.457031 0 4.28125 0 C 3.320312 0 2.394531 -0.257812 1.5 -0.78125 C 0.613281 -1.300781 0.171875 -1.921875 0.171875 -2.640625 Z M 9.09375 -11.28125 L 15.109375 -11.28125 L 12.109375 -22.3125 Z M 9.09375 -11.28125 "/></g></g></g><g fill="rgb(97.24884%, 99.21875%, 100%)" fill-opacity="1"><g transform="translate(215.984097, 214.032636)"><g><path d="M 2.21875 -1.96875 L 2.21875 -28.15625 C 2.21875 -28.789062 2.53125 -29.269531 3.15625 -29.59375 C 3.789062 -29.925781 4.546875 -30.09375 5.421875 -30.09375 C 6.304688 -30.09375 7.0625 -29.925781 7.6875 -29.59375 C 8.320312 -29.269531 8.640625 -28.789062 8.640625 -28.15625 L 8.640625 -5.59375 L 18.03125 -5.59375 C 18.601562 -5.59375 19.054688 -5.316406 19.390625 -4.765625 C 19.722656 -4.222656 19.890625 -3.566406 19.890625 -2.796875 C 19.890625 -2.023438 19.722656 -1.363281 19.390625 -0.8125 C 19.054688 -0.269531 18.601562 0 18.03125 0 L 5.015625 0 C 4.253906 0 3.597656 -0.171875 3.046875 -0.515625 C 2.492188 -0.859375 2.21875 -1.34375 2.21875 -1.96875 Z M 2.21875 -1.96875 "/></g></g></g><g fill="rgb(97.24884%, 99.21875%, 100%)" fill-opacity="1"><g transform="translate(248.711101, 214.032636)"><g/></g></g><g fill="rgb(97.24884%, 99.21875%, 100%)" fill-opacity="1"><g transform="translate(269.418879, 214.032636)"><g><path d="M 0.328125 -27.25 C 0.328125 -28.019531 0.488281 -28.6875 0.8125 -29.25 C 1.144531 -29.8125 1.628906 -30.09375 2.265625 -30.09375 L 20.046875 -30.09375 C 20.679688 -30.09375 21.160156 -29.8125 21.484375 -29.25 C 21.816406 -28.6875 21.984375 -28.019531 21.984375 -27.25 C 21.984375 -26.425781 21.8125 -25.734375 21.46875 -25.171875 C 21.125 -24.609375 20.648438 -24.328125 20.046875 -24.328125 L 14.375 -24.328125 L 14.375 -1.96875 C 14.375 -1.34375 14.054688 -0.859375 13.421875 -0.515625 C 12.785156 -0.171875 12.03125 0 11.15625 0 C 10.28125 0 9.523438 -0.171875 8.890625 -0.515625 C 8.265625 -0.859375 7.953125 -1.34375 7.953125 -1.96875 L 7.953125 -24.328125 L 2.265625 -24.328125 C 1.660156 -24.328125 1.1875 -24.609375 0.84375 -25.171875 C 0.5 -25.734375 0.328125 -26.425781 0.328125 -27.25 Z M 0.328125 -27.25 "/></g></g></g><g fill="rgb(97.24884%, 99.21875%, 100%)" fill-opacity="1"><g transform="translate(304.203987, 214.032636)"><g><path d="M 0.171875 -2.640625 C 0.171875 -2.722656 0.195312 -2.875 0.25 -3.09375 L 7.90625 -28.203125 C 8.125 -28.890625 8.625 -29.414062 9.40625 -29.78125 C 10.1875 -30.15625 11.082031 -30.34375 12.09375 -30.34375 C 13.113281 -30.34375 14.015625 -30.15625 14.796875 -29.78125 C 15.578125 -29.414062 16.078125 -28.890625 16.296875 -28.203125 L 24 -3.09375 C 24.050781 -2.875 24.078125 -2.722656 24.078125 -2.640625 C 24.078125 -1.921875 23.628906 -1.300781 22.734375 -0.78125 C 21.847656 -0.257812 20.925781 0 19.96875 0 C 18.789062 0 18.09375 -0.394531 17.875 -1.1875 L 16.46875 -6.34375 L 7.78125 -6.34375 L 6.375 -1.1875 C 6.15625 -0.394531 5.457031 0 4.28125 0 C 3.320312 0 2.394531 -0.257812 1.5 -0.78125 C 0.613281 -1.300781 0.171875 -1.921875 0.171875 -2.640625 Z M 9.09375 -11.28125 L 15.109375 -11.28125 L 12.109375 -22.3125 Z M 9.09375 -11.28125 "/></g></g></g><g fill="rgb(97.24884%, 99.21875%, 100%)" fill-opacity="1"><g transform="translate(340.923702, 214.032636)"><g><path d="M 1.890625 -9.46875 L 1.890625 -20.375 C 1.890625 -23.726562 2.800781 -26.1875 4.625 -27.75 C 6.457031 -29.3125 8.84375 -30.09375 11.78125 -30.09375 C 14.789062 -30.09375 17.265625 -29.363281 19.203125 -27.90625 C 21.140625 -26.457031 22.109375 -24.457031 22.109375 -21.90625 C 22.109375 -20.726562 21.859375 -19.925781 21.359375 -19.5 C 20.867188 -19.070312 20.046875 -18.859375 18.890625 -18.859375 C 16.785156 -18.859375 15.71875 -19.503906 15.6875 -20.796875 C 15.6875 -21.179688 15.671875 -21.503906 15.640625 -21.765625 C 15.617188 -22.023438 15.535156 -22.34375 15.390625 -22.71875 C 15.253906 -23.101562 15.0625 -23.40625 14.8125 -23.625 C 14.570312 -23.851562 14.210938 -24.054688 13.734375 -24.234375 C 13.253906 -24.410156 12.679688 -24.5 12.015625 -24.5 C 9.546875 -24.5 8.3125 -23.125 8.3125 -20.375 L 8.3125 -9.46875 C 8.3125 -6.726562 9.535156 -5.359375 11.984375 -5.359375 C 14.453125 -5.359375 15.6875 -6.726562 15.6875 -9.46875 L 15.6875 -10.875 L 13.25 -10.875 C 12.644531 -10.875 12.171875 -11.113281 11.828125 -11.59375 C 11.492188 -12.070312 11.328125 -12.65625 11.328125 -13.34375 C 11.328125 -13.96875 11.503906 -14.535156 11.859375 -15.046875 C 12.210938 -15.554688 12.675781 -15.8125 13.25 -15.8125 L 20.171875 -15.8125 C 20.773438 -15.8125 21.25 -15.609375 21.59375 -15.203125 C 21.9375 -14.804688 22.109375 -14.335938 22.109375 -13.796875 L 22.109375 -9.46875 C 22.109375 -6.125 21.1875 -3.664062 19.34375 -2.09375 C 17.507812 -0.53125 15.054688 0.25 11.984375 0.25 C 8.929688 0.25 6.484375 -0.53125 4.640625 -2.09375 C 2.804688 -3.664062 1.890625 -6.125 1.890625 -9.46875 Z M 1.890625 -9.46875 "/></g></g></g></svg>